<svg class="icon" viewBox="0 0 2051 1024" xmlns="http://www.w3.org/2000/svg" width="400.586" height="200"><defs><style/></defs><path d="M2030.777 127.72c21.889-35.277 14.603-82.313-14.603-109.762-32.849-27.432-76.642-19.588-102.189 15.69-3.659 3.914-408.789 517.368-890.56 517.368-467.17 0-890.561-517.368-894.204-521.283C103.658-1.63 56.206-5.544 27.016 21.905c-29.19 27.4-32.85 78.351-7.302 109.714C27.016 143.378 114.618 249.21 253.3 366.8L67.166 574.535c-29.206 31.363-25.563 82.313 3.643 109.762 7.301 15.658 25.563 23.502 43.809 23.502s36.491-7.829 51.094-23.518l200.736-223.407c94.904 70.555 208.037 137.195 332.13 184.215l-76.641 278.289c-10.944 43.122 10.96 86.228 51.095 97.987h21.888c32.865 0 62.055-23.518 69.357-58.796l76.657-278.272c58.397 11.76 120.435 19.604 182.49 19.604 62.04 0 124.094-7.829 182.49-19.604l76.642 274.374c7.302 35.277 40.15 58.795 69.34 58.795 7.302 0 14.603 0 18.262-3.93 40.15-11.76 62.04-54.865 51.095-97.987L1344.61 641.19c124.094-47.037 237.227-113.66 332.13-184.215l197.094 219.492c14.587 15.674 32.848 23.518 51.094 23.518s36.492-7.828 51.095-23.518c29.206-31.363 29.206-78.383 3.643-109.762l-186.133-207.718c149.641-117.59 237.243-231.251 237.243-231.251z"/></svg>